<?xml version="1.0" encoding="utf-8"?>
<!DOCTYPE svg PUBLIC "-//W3C//DTD SVG 1.0//EN" "http://www.w3.org/TR/2001/REC-SVG-20010904/DTD/svg10.dtd">
<svg version="1.0" xmlns="http://www.w3.org/2000/svg" width="766px" height="400px" viewBox="0 0 766 400" preserveAspectRatio="xMidYMid meet">
 <g fill="#ffffff">
  <path d="M0 200.20 l0 -200.20 383 0 383 0 0 200.20 0 200.20 -383 0 -383 0 0 -200.20z m390.45 174.15 c4.46 -1.74 11.59 -4.68 15.94 -6.47 4.35 -1.80 18.17 -7.45 30.74 -12.62 36.99 -15.12 88.79 -36.78 144.44 -60.33 11.81 -5.01 22.31 -9.41 23.28 -9.85 0.98 -0.38 1.69 -0.76 1.58 -0.92 -0.11 -0.11 -12.08 4.03 -26.55 9.14 -14.47 5.11 -32.10 11.32 -39.12 13.82 -7.02 2.50 -19.04 6.75 -26.66 9.52 -7.62 2.77 -16.21 5.82 -19.04 6.80 -5.93 2.07 -51.36 18.33 -87.32 31.28 -27.42 9.85 -25.52 9.47 -33.19 6.58 -14.47 -5.44 -50.49 -18.61 -79.97 -29.21 -12.84 -4.68 -24.75 -8.92 -26.39 -9.57 -21.54 -8 -117.57 -41.95 -117.84 -41.67 -0.05 0.11 8.11 3.59 18.17 7.73 10.06 4.19 23.23 9.63 29.21 12.19 11.10 4.62 103.42 43.20 151.79 63.33 14.69 6.15 27.91 11.64 29.38 12.30 1.52 0.60 2.88 1.14 3.10 1.14 0.22 0.05 4.03 -1.41 8.43 -3.16z m-244.16 -115.88 c1.03 -1.47 1.14 -2.34 1.14 -12.02 0 -10.34 0.33 -12.51 1.90 -12.51 1.36 0 2.12 -2.28 2.45 -7.34 l0.27 -4.90 7.34 -0.16 c5.01 -0.11 7.45 -0.33 7.73 -0.82 0.22 -0.38 0.44 -14.14 0.44 -30.68 0 -29.16 -0.05 -30.09 -1.03 -30.63 -0.71 -0.38 -21.22 -0.54 -62.51 -0.54 -51.19 0 -61.53 0.11 -62.07 0.76 -0.44 0.49 -0.54 9.14 -0.49 31.12 l0.16 30.41 46.24 0.27 c25.46 0.16 46.24 0.33 46.30 0.44 0.05 0.05 0.22 2.34 0.44 5.11 0.16 2.83 0.65 5.33 1.03 5.66 0.33 0.38 1.52 0.92 2.56 1.14 l1.90 0.49 0.27 11.75 c0.22 10.55 0.38 11.86 1.31 12.89 1.47 1.63 3.32 1.47 4.62 -0.44z m339.21 -32.70 c2.28 -0.87 3.75 -1.96 6.04 -4.46 1.63 -1.85 2.99 -3.54 2.99 -3.70 0 -0.22 -1.14 -0.87 -2.61 -1.47 l-2.56 -1.09 -1.47 2.07 c-2.34 3.26 -4.08 3.92 -10.23 3.65 -4.84 -0.16 -5.49 -0.33 -7.34 -1.74 -6.58 -5.06 -7.56 -24.10 -1.52 -30.36 5.06 -5.33 16.21 -4.84 19.69 0.87 0.71 1.09 1.31 1.96 1.47 1.96 0.27 0 4.79 -1.74 5.06 -1.96 0.44 -0.38 -2.39 -4.19 -4.68 -6.15 -7.18 -6.37 -17.74 -5.71 -25.35 1.52 -4.84 4.57 -7.45 10.88 -7.45 18.12 0 8.87 4.57 17.52 11.70 21.92 4.13 2.56 10.66 2.88 16.27 0.82z m125.18 -0.05 c3.21 -1.20 6.91 -4.73 8.21 -7.83 1.09 -2.67 0.98 -6.96 -0.33 -9.47 -2.01 -3.97 -6.09 -6.47 -14.80 -8.98 -8 -2.28 -9.14 -3.32 -9.14 -7.94 0 -4.03 1.96 -6.15 6.37 -6.85 3.26 -0.49 8.16 1.09 10.12 3.26 l1.58 1.80 2.39 -0.87 c1.31 -0.49 2.39 -1.14 2.39 -1.52 0 -0.33 -1.20 -1.85 -2.61 -3.32 -4.57 -4.68 -11.04 -6.15 -17.25 -3.97 -3.92 1.36 -5.82 2.77 -7.78 5.82 -3.10 4.57 -2.77 9.14 0.87 13.49 2.67 3.16 4.68 4.24 11.81 6.31 9.36 2.72 10.06 3.32 10.06 8.11 0 3.97 -0.71 5.39 -3.37 6.58 -4.73 2.12 -11.86 1.09 -15.12 -2.18 l-2.01 -2.01 -2.23 1.09 c-1.25 0.54 -2.28 1.25 -2.28 1.47 0 0.22 1.52 1.85 3.43 3.70 2.34 2.18 4.13 3.48 5.60 3.81 1.14 0.33 2.61 0.71 3.21 0.87 1.96 0.49 7.89 -0.22 10.88 -1.36z m40.20 0.05 c6.96 -2.61 11.04 -11.42 8 -17.30 -2.18 -4.24 -6.31 -6.75 -15.02 -9.03 -6.37 -1.69 -8.32 -3.21 -8.81 -6.69 -0.60 -4.57 1.52 -7.34 6.20 -8.11 3.26 -0.49 8.16 1.09 10.12 3.26 l1.58 1.80 2.39 -0.87 c1.31 -0.49 2.39 -1.20 2.39 -1.58 0 -1.47 -5.39 -5.98 -8.54 -7.18 -9.41 -3.54 -20.84 2.94 -20.84 11.81 0 3.75 0.71 5.39 3.43 8.21 2.83 2.94 4.08 3.59 9.47 5.01 6.04 1.63 9.85 3.21 10.77 4.57 0.98 1.31 1.09 5.44 0.22 7.89 -0.87 2.50 -3.21 3.54 -8.11 3.54 -5.01 0.05 -7.89 -0.92 -10.12 -3.32 l-1.74 -1.90 -2.23 1.14 c-1.25 0.65 -2.23 1.36 -2.23 1.58 0 0.76 5.66 5.98 7.51 6.91 4.30 2.12 10.23 2.23 15.56 0.27z m79.86 0.22 c2.83 -0.98 7.24 -5.11 8.65 -8.11 1.31 -2.77 1.31 -6.47 0 -9.30 -2.01 -4.41 -5.98 -6.75 -17.19 -9.96 -4.79 -1.36 -6.31 -2.83 -6.69 -6.47 -0.44 -4.84 2.18 -7.18 7.89 -7.18 3.10 0 7.78 1.25 7.78 2.12 0.05 0.16 0.49 0.92 1.09 1.58 1.09 1.31 1.09 1.31 3.48 0.38 2.45 -0.92 2.45 -0.98 1.69 -2.45 -1.20 -2.34 -5.28 -5.60 -8.38 -6.75 -8.92 -3.21 -20.18 3.48 -20.18 11.86 0.05 5.82 4.24 10.83 10.77 12.73 2.01 0.60 5.39 1.58 7.56 2.23 4.95 1.47 6.15 2.83 6.15 6.96 0 5.77 -2.23 7.51 -9.52 7.45 -4.90 0 -8.05 -1.25 -9.90 -3.81 l-1.03 -1.41 -2.28 1.14 c-1.25 0.65 -2.28 1.36 -2.28 1.58 0 0.54 4.73 5.11 6.80 6.47 3.43 2.34 10.45 2.77 15.61 0.92z m-502.25 -0.49 c5.98 -2.12 9.47 -6.31 9.52 -11.42 0 -3.75 -2.28 -7.56 -5.55 -9.19 -2.07 -1.03 -2.28 -1.36 -2.34 -3.05 0 -1.58 0.33 -2.12 1.90 -3.21 2.18 -1.47 4.08 -5.06 4.08 -7.73 -0.05 -4.30 -3.81 -9.09 -8.27 -10.39 -1.52 -0.44 -6.04 -0.65 -12.68 -0.71 l-10.34 0 -0.16 22.85 c-0.05 12.57 0 23.18 0.16 23.61 0.44 1.14 20.18 0.49 23.67 -0.76z m50.05 -1.41 l0 -2.67 -11.42 0 -11.42 0 0 -8.16 0 -8.16 9.79 0 9.79 0 0 -2.45 0 -2.45 -9.63 -0.11 -9.68 -0.16 -0.16 -7.45 -0.16 -7.51 11.48 0 11.42 0 0 -2.72 0 -2.72 -14.42 0 -14.42 0 0 23.67 0 23.61 14.42 -0.05 14.42 0 0 -2.67z m18.44 2.28 c0.65 -0.44 0.71 -2.23 0.44 -10.61 l-0.33 -10.12 11.64 0 11.70 0 0.11 10.50 0.16 10.45 2.99 0 2.99 0 0 -23.39 0 -23.39 -2.99 0 -2.99 0 -0.16 10.23 -0.11 10.17 -11.59 -0.11 -11.53 -0.16 0.22 -6.85 c0.11 -3.75 0 -8.32 -0.22 -10.17 l-0.38 -3.37 -2.94 0 -2.94 0 0 23.28 c0 12.84 0.16 23.50 0.38 23.67 0.49 0.54 4.68 0.44 5.55 -0.11z m50.38 -23.18 l0 -23.39 -3.10 -0.16 -3.16 -0.16 0 23.34 c0 12.84 0.16 23.50 0.38 23.72 0.22 0.22 1.63 0.33 3.16 0.22 l2.72 -0.16 0 -23.39z m19.75 23.18 c0.60 -0.38 0.71 -3.65 0.54 -17.41 l-0.16 -16.92 1.90 0 1.90 0 10.34 17.08 c11.15 18.50 10.50 17.74 15.29 17.74 l1.85 0 0 -23.67 0 -23.67 -2.99 0 -2.99 0 0 16.59 0 16.59 -1.80 0 c-1.85 0 -1.96 -0.16 -12.13 -16.59 l-10.23 -16.65 -3.59 0.16 -3.54 0.16 -0.16 22.85 c-0.05 12.57 0 23.18 0.16 23.50 0.27 0.82 4.46 0.92 5.60 0.22z m64.30 -0.65 c9.03 -1.80 14.69 -8 16.70 -18.44 0.82 -4.03 0.82 -4.73 -0.05 -9.03 -2.07 -10.66 -7.78 -16.65 -17.19 -18.17 -1.96 -0.27 -6.91 -0.54 -10.99 -0.54 l-7.51 0 0 23.39 0 23.34 4.79 0.16 c6.31 0.22 10.61 0 14.25 -0.71z m100.65 -2.12 l0 -2.72 -9.52 0 c-8.81 0 -9.52 -0.05 -10.06 -1.03 -0.33 -0.71 -0.54 -8.21 -0.54 -20.67 l0 -19.64 -3.26 0 -3.21 0 -0.16 22.20 c-0.11 12.19 -0.05 22.69 0.05 23.39 l0.16 1.20 13.27 0 13.27 0 0 -2.72z m17.52 -2.83 l1.80 -5.60 9.25 0 9.25 0 1.80 5.60 1.80 5.55 3.26 0 c1.74 0 3.21 -0.16 3.21 -0.38 0 -0.22 -3.43 -10.72 -7.67 -23.39 l-7.67 -23.01 -3.70 0 c-2.39 0 -3.92 0.22 -4.19 0.71 -0.44 0.71 -15.40 44.99 -15.40 45.70 0 0.22 1.47 0.38 3.21 0.38 l3.26 0 1.80 -5.55z m148.96 2.83 l0 -2.72 -9.96 0 c-7.02 0 -10.17 -0.22 -10.61 -0.65 -0.71 -0.71 -0.98 -12.62 -0.33 -14.25 0.27 -0.76 1.58 -0.87 9.03 -0.87 l8.65 0 -0.16 -2.56 -0.16 -2.61 -8.54 -0.16 c-10.12 -0.16 -9.25 0.65 -9.03 -8.54 l0.16 -5.98 10.50 -0.16 10.45 -0.11 0 -2.72 0 -2.72 -13.87 0 -13.82 0 -0.16 15.94 c-0.11 8.70 -0.11 19.26 0 23.39 l0.16 7.45 13.87 0 13.82 0 0 -2.72z m-96.29 -119.63 c-0.44 -0.27 -8.87 -3.65 -18.77 -7.56 -9.85 -3.92 -30.68 -12.19 -46.24 -18.33 -24.59 -9.79 -65.61 -25.90 -91.94 -36.18 -4.46 -1.74 -13.66 -5.22 -20.40 -7.78 -6.75 -2.56 -18.99 -7.24 -27.20 -10.34 -8.21 -3.10 -15.50 -5.82 -16.10 -6.04 -1.09 -0.33 -7.13 1.90 -50.27 18.88 -6.42 2.56 -33.46 13.27 -60.12 23.88 -26.60 10.66 -61.58 24.54 -77.63 30.96 -16.05 6.37 -29.11 11.70 -29 11.81 0.38 0.38 198.95 -65.99 210.60 -70.34 1.96 -0.76 4.57 -1.36 5.77 -1.36 1.96 0 31.34 9.68 193.30 63.60 26.49 8.81 29.87 9.85 28.02 8.81z"/>
  <path d="M44.18 217.50 c-0.87 -0.87 -0.92 -53.26 -0.11 -54.89 0.54 -1.03 1.80 -1.03 59.90 -1.03 39.82 0 59.68 0.16 60.39 0.54 0.98 0.54 1.03 1.47 1.03 27.47 0 14.74 -0.16 27.20 -0.33 27.69 -0.27 0.71 -1.41 0.87 -6.75 0.87 l-6.42 0 -0.22 -7.34 c-0.16 -7.18 -0.22 -7.34 -1.69 -8.81 l-1.52 -1.52 -14.25 0 -14.25 0 -2.99 -1.58 c-3.10 -1.63 -6.53 -3.92 -11.15 -7.56 -2.01 -1.63 -1.58 -1.09 1.63 2.12 11.37 11.21 12.19 11.70 20.02 12.13 3.21 0.22 6.09 0.65 6.37 0.92 0.38 0.38 0.54 2.77 0.44 5.98 l-0.16 5.39 -36.99 0 -36.94 0 -0.60 -3.16 c-0.33 -2.07 -0.92 -3.48 -1.58 -3.97 -1.58 -1.14 -4.84 -0.92 -6.53 0.38 -1.20 0.98 -1.41 1.52 -1.41 4.08 l0 2.94 -2.61 0 c-1.41 0 -2.88 -0.27 -3.26 -0.65z m97.98 -23.34 c2.28 -0.60 5.49 -4.46 6.04 -7.18 0.65 -3.26 -2.72 -8.05 -6.75 -9.52 -1.85 -0.71 -4.57 0.27 -6.75 2.39 -3.92 3.81 -3.70 8.27 0.49 12.51 2.56 2.56 3.48 2.77 6.96 1.80z"/>
  <path d="M211.09 213.26 l0 -8.81 7.83 0.22 c6.91 0.16 8.05 0.33 9.41 1.31 2.50 1.85 3.54 4.35 3.26 8 -0.54 6.37 -2.61 7.56 -13 7.89 l-7.51 0.22 0 -8.81z"/>
  <path d="M212.06 200.37 c-0.87 -0.22 -0.98 -1.09 -0.98 -8.16 l0 -7.89 7.67 0.22 7.67 0.16 1.63 1.85 c1.58 1.74 1.63 2.01 1.41 6.09 -0.22 4.84 -1.31 6.58 -4.73 7.56 -1.96 0.54 -10.88 0.65 -12.68 0.16z"/>
  <path d="M418.47 203.09 l0.16 -18.39 6.31 0.05 c7.13 0.11 9.52 0.71 12.24 3.10 3.75 3.26 4.30 5.06 4.30 14.53 0 7.73 -0.11 8.65 -1.31 11.32 -1.52 3.32 -4.57 6.20 -7.62 7.07 -1.14 0.38 -4.79 0.65 -8.16 0.65 l-6.04 0 0.11 -18.33z"/>
  <path d="M554.37 207.44 c0 -1.14 0.98 -5.39 2.18 -9.41 1.20 -4.03 2.18 -7.40 2.18 -7.51 0 -0.11 0.92 -0.11 2.01 0 l2.01 0.16 2.34 7.62 c1.25 4.19 2.28 8.38 2.18 9.25 l-0.11 1.63 -6.37 0.16 -6.42 0.16 0 -2.07z"/>
 </g>
 <g fill="#0e2443">
  <path d="M374.84 376.96 c-3.75 -1.52 -21.71 -9.03 -39.99 -16.65 -18.23 -7.62 -52.99 -22.14 -77.25 -32.26 -24.21 -10.12 -50.16 -20.95 -57.67 -24.10 -18.28 -7.67 -42.98 -17.90 -58.21 -24.05 -6.85 -2.77 -17.63 -7.18 -23.94 -9.79 -6.31 -2.56 -14.20 -5.82 -17.52 -7.18 -3.37 -1.41 -6.15 -2.72 -6.15 -2.94 0 -1.31 64.30 20.89 159.13 54.89 7.51 2.72 14.96 5.39 16.59 5.98 1.63 0.65 13.55 4.90 26.39 9.57 29.76 10.72 66.21 24.05 79.97 29.21 2.39 0.92 4.95 1.69 5.71 1.69 0.76 0 10.28 -3.21 21.22 -7.18 25.46 -9.19 83.56 -30.03 90.31 -32.37 2.83 -0.98 11.42 -4.03 19.04 -6.80 15.02 -5.39 32.32 -11.53 75.08 -26.66 49.29 -17.41 62.73 -22.20 69.58 -24.70 6.85 -2.56 8.32 -2.94 7.40 -2.01 -0.49 0.49 -15.02 6.75 -48.96 21.16 -50.76 21.54 -71.38 30.25 -94.93 40.10 -3.75 1.58 -16.54 6.91 -28.45 11.91 -11.97 5.01 -31.28 13 -42.98 17.79 -11.75 4.84 -26.11 10.72 -31.93 13.11 -22.31 9.14 -34.49 14.04 -35.04 14.04 -0.33 -0.05 -3.65 -1.31 -7.40 -2.77z"/>
  <path d="M203.20 227.90 c-0.16 -0.44 -0.22 -11.75 -0.16 -25.24 l0.16 -24.48 11.97 0 c13.33 0.05 15.45 0.38 18.61 3.16 2.72 2.39 3.97 5.33 3.97 9.57 0 4.30 -1.41 7.56 -4.08 9.36 -1.03 0.71 -1.90 1.41 -1.90 1.58 0 0.16 1.09 0.82 2.34 1.41 1.52 0.76 2.83 2.07 3.92 3.75 1.47 2.39 1.63 3.10 1.63 7.02 0 3.86 -0.22 4.73 -1.52 7.02 -1.69 2.83 -4.19 4.73 -8 6.15 -3.43 1.25 -26.49 1.85 -26.93 0.71z m20.62 -8.11 c3.05 -0.71 4.84 -2.23 5.66 -4.79 0.65 -2.01 0.65 -2.50 -0.27 -4.30 -1.74 -3.54 -3.16 -4.13 -10.23 -4.41 l-6.26 -0.27 0 7.18 0 7.13 4.52 0 c2.45 0 5.44 -0.27 6.58 -0.54z m-0.71 -21.22 c2.83 -0.82 4.41 -2.72 4.73 -5.88 0.22 -2.39 0.05 -2.88 -1.41 -4.52 l-1.63 -1.85 -6.04 -0.16 -6.04 -0.22 0 6.26 c0 5.55 0.11 6.31 0.98 6.53 1.80 0.49 7.45 0.38 9.41 -0.16z"/>
  <path d="M248.08 203.20 l0 -25.30 16.05 0 16.05 0 0 4.35 0 4.35 -11.42 0 -11.48 0 0.16 5.88 0.16 5.82 9.68 0.16 9.63 0.11 0 4.08 0 4.08 -9.79 0 -9.79 0 0 6.53 0 6.53 11.42 0 11.42 0 0 4.35 0 4.30 -16.05 0.05 -16.05 0 0 -25.30z"/>
  <path d="M289.81 228.11 c-0.22 -0.16 -0.38 -11.59 -0.38 -25.30 l0 -24.92 4.57 0 4.52 0 0.38 2.77 c0.22 1.52 0.33 6.09 0.27 10.17 l-0.05 7.45 9.85 0.16 9.85 0.11 0.11 -10.17 0.16 -10.23 4.62 0 4.62 0 0 25.03 0 25.03 -4.62 0 -4.62 0 -0.16 -10.45 -0.11 -10.50 -9.96 0 -9.90 0 0.16 10.12 c0.16 8.11 0.05 10.23 -0.54 10.61 -0.82 0.54 -8.27 0.65 -8.76 0.11z"/>
  <path d="M339.86 228.17 c-0.22 -0.22 -0.38 -11.64 -0.38 -25.35 l0 -24.97 4.79 0.16 4.73 0.16 0 25.03 0 25.03 -4.35 0.16 c-2.45 0.05 -4.57 0 -4.79 -0.22z"/>
  <path d="M359.88 227.84 c-0.16 -0.38 -0.22 -11.70 -0.16 -25.19 l0.16 -24.48 5.17 -0.16 5.22 -0.16 10.28 16.70 10.34 16.70 0.16 -16.65 0.11 -16.70 4.62 0 4.62 0 0 25.30 0 25.30 -3.48 0 c-6.69 0 -5.44 1.31 -16.92 -17.74 -5.71 -9.41 -10.45 -17.08 -10.61 -17.08 -0.16 0 -0.22 7.62 -0.11 16.97 0.11 13.27 0 17.03 -0.54 17.41 -1.20 0.71 -8.60 0.54 -8.87 -0.22z"/>
  <path d="M411.02 228 c-0.16 -0.11 -0.27 -11.48 -0.27 -25.19 l0 -24.92 9.14 0 c5.01 0 10.66 0.27 12.62 0.54 9.19 1.47 15.02 7.45 17.08 17.57 1.09 5.11 1.09 8.81 0.05 13.60 -2.07 9.74 -7.56 15.72 -16.38 17.74 -2.67 0.65 -21.76 1.20 -22.25 0.65z m19.91 -8.87 c3.05 -0.87 6.09 -3.75 7.62 -7.07 1.14 -2.56 1.31 -3.70 1.31 -9.68 0 -7.67 -0.71 -9.79 -4.30 -12.89 -2.50 -2.28 -4.73 -2.88 -10.45 -3.05 l-4.84 -0.11 -0.11 16.76 -0.11 16.70 4.41 0 c2.39 0 5.33 -0.27 6.47 -0.65z"/>
  <path d="M603.88 107.17 c-32.15 -10.72 -95.42 -31.77 -140.63 -46.79 l-82.15 -27.31 -4.90 1.69 c-11.75 4.19 -77.14 26.17 -140.90 47.33 -37.97 12.68 -82.20 27.36 -98.20 32.70 -30.85 10.34 -35.36 11.75 -34.55 10.94 0.54 -0.49 24.16 -10.01 89.49 -35.96 15.99 -6.37 50.87 -20.24 77.52 -30.90 49.40 -19.69 56.47 -22.47 91.07 -36.02 19.26 -7.51 19.91 -7.73 21.76 -7.07 1.09 0.38 8.70 3.26 16.92 6.37 8.21 3.10 20.46 7.78 27.20 10.34 6.75 2.56 15.94 6.04 20.40 7.78 24.59 9.63 69.69 27.31 92.76 36.45 47.71 18.93 67.90 27.04 118.33 47.39 4.73 1.90 4.95 2.01 4.57 2.39 -0.16 0.11 -26.60 -8.54 -58.70 -19.31z"/>
 </g>
 <g fill="#f8c007">
  <path d="M140.36 260.86 c-1.36 -1.41 -1.36 -1.58 -1.63 -13.22 l-0.27 -11.75 -1.90 -0.49 c-1.03 -0.22 -2.23 -0.76 -2.56 -1.14 -0.38 -0.33 -0.87 -2.83 -1.03 -5.66 -0.22 -2.77 -0.38 -5.06 -0.44 -5.11 -0.05 -0.11 -20.84 -0.27 -46.30 -0.44 l-46.24 -0.27 -0.16 -32.04 c-0.05 -23.18 0.05 -32.26 0.49 -32.75 0.54 -0.65 11.15 -0.76 63.71 -0.76 42.43 0 63.43 0.16 64.14 0.54 0.98 0.54 1.03 1.47 1.03 32.26 0 17.41 -0.22 31.99 -0.49 32.37 -0.33 0.54 -2.34 0.76 -7.73 0.82 l-7.29 0.11 -0.27 4.90 c-0.33 5.06 -1.09 7.34 -2.45 7.34 -1.58 0 -1.90 2.18 -1.90 12.62 0 10.06 -0.05 10.55 -1.25 12.02 -0.87 1.09 -1.85 1.58 -3.65 1.80 -2.18 0.27 -2.61 0.16 -3.81 -1.14z m-92.27 -46.95 c-0.33 -2.50 -0.22 -2.72 1.41 -4.08 1.47 -1.25 2.18 -1.47 5.39 -1.47 4.73 0 5.60 0.65 6.31 4.73 l0.60 3.16 35.31 0 35.36 0 0.16 -3.75 c0.11 -2.12 -0.11 -4.03 -0.38 -4.30 -0.33 -0.33 -3.21 -0.76 -6.42 -0.98 -6.58 -0.38 -8.11 -0.98 -12.95 -5.33 -4.24 -3.81 -18.88 -18.61 -20.56 -20.78 -1.47 -1.96 -1.52 -3.75 -0.11 -3.75 0.38 0 3.70 2.61 7.40 5.77 8.43 7.24 14.96 12.13 18.93 14.14 l3.05 1.58 13.98 -0.16 14.04 -0.11 1.74 1.58 1.80 1.58 0.16 7.40 0.22 7.40 4.79 0 c3.86 0 4.84 -0.16 5.11 -0.87 0.16 -0.49 0.33 -12.19 0.33 -26.06 0 -24.43 -0.05 -25.30 -1.03 -25.84 -0.71 -0.38 -20.02 -0.54 -58.76 -0.54 -56.47 0 -57.72 0 -58.27 1.03 -0.33 0.71 -0.54 9.85 -0.54 26 0 26.06 0 26.28 2.28 26.28 0.87 0 0.98 -0.33 0.65 -2.61z"/>
  <path d="M133.56 194 c-6.20 -6.20 -4.13 -15.89 3.92 -18.28 2.94 -0.87 5.49 -0.38 8.32 1.69 4.79 3.48 5.71 9.96 2.07 15.07 -2.12 2.94 -4.13 3.86 -8.76 3.86 -2.99 0.05 -3.21 -0.05 -5.55 -2.34z"/>
  <path d="M471.95 228.33 c-5.11 -1.36 -10.23 -5.77 -13.06 -11.26 -2.23 -4.46 -2.99 -8.05 -2.99 -14.04 0 -8.87 2.28 -14.85 7.45 -19.75 3.48 -3.32 7.40 -5.17 12.35 -5.88 8.54 -1.20 16.27 2.23 20.24 8.98 2.01 3.43 1.63 4.41 -2.12 5.93 -5.28 2.18 -5.01 2.18 -6.64 -0.60 -1.09 -1.90 -2.12 -2.83 -4.24 -3.81 -4.46 -2.07 -7.83 -1.58 -11.75 1.69 -4.90 4.19 -6.15 15.23 -2.56 23.34 1.85 4.19 4.24 5.82 8.92 6.20 4.57 0.33 6.53 -0.54 8.98 -4.03 0.92 -1.31 1.96 -2.39 2.28 -2.39 1.03 0 8.11 3.16 8.32 3.75 0.33 0.92 -1.36 3.65 -4.24 6.75 -2.07 2.23 -3.59 3.37 -5.88 4.24 -3.81 1.41 -11.15 1.85 -15.07 0.87z"/>
  <path d="M598.17 228.71 c-0.60 -0.16 -2.07 -0.54 -3.21 -0.87 -3.26 -0.82 -10.12 -7.73 -10.12 -10.17 0 -0.27 1.90 -1.41 4.19 -2.50 3.86 -1.80 4.19 -1.90 4.73 -0.98 1.20 2.23 4.19 4.41 6.85 5.06 4.95 1.20 9.47 -0.60 10.12 -4.08 0.44 -2.50 -0.38 -4.35 -2.34 -5.39 -0.87 -0.38 -4.24 -1.52 -7.51 -2.50 -6.91 -2.01 -9.09 -3.16 -11.64 -6.04 -2.28 -2.67 -3.26 -5.39 -3.26 -9.19 0 -5.82 2.83 -10.39 8 -12.84 4.46 -2.18 12.02 -2.50 16.65 -0.76 4.46 1.69 9.57 7.07 9.57 10.06 0 0.60 -7.07 3.54 -8.43 3.54 -0.33 0 -1.03 -0.76 -1.58 -1.69 -1.14 -1.96 -4.95 -3.86 -7.67 -3.86 -3.92 0 -6.91 3.32 -5.88 6.47 0.65 1.96 2.67 3.10 8.60 4.79 12.46 3.59 16.27 7.24 16.21 15.50 0 4.90 -0.87 7.18 -3.97 10.55 -3.05 3.26 -6.85 4.73 -13.33 4.95 -2.67 0.11 -5.39 0.11 -5.98 -0.05z"/>
  <path d="M637.77 228.49 c-1.25 -0.27 -3.05 -0.87 -4.08 -1.36 -3.37 -1.74 -8.60 -7.45 -8.60 -9.47 0 -0.33 1.41 -1.31 3.16 -2.18 5.06 -2.56 5.28 -2.56 6.69 -0.27 1.52 2.50 5.11 4.19 8.92 4.19 3.86 0 6.04 -1.25 6.85 -3.97 1.31 -4.24 -0.71 -5.88 -10.50 -8.49 -6.15 -1.63 -7.24 -2.23 -10.34 -5.55 -2.83 -2.99 -3.48 -4.95 -3.32 -10.23 0.11 -5.17 2.94 -9.47 8 -12.02 2.23 -1.20 3.75 -1.52 7.73 -1.69 5.93 -0.27 9.19 0.60 12.95 3.48 2.45 1.85 5.22 5.82 5.22 7.40 0 0.49 -1.63 1.41 -4.35 2.45 l-4.35 1.69 -1.20 -1.96 c-1.31 -2.12 -4.95 -4.03 -7.78 -4.03 -3.75 0 -6.85 3.37 -5.77 6.26 0.92 2.34 2.99 3.59 8.49 5.06 12.19 3.21 16.05 6.91 16.05 15.29 -0.05 6.96 -3.32 12.13 -9.14 14.31 -3.48 1.36 -10.88 1.90 -14.63 1.09z"/>
  <path d="M717.58 228.44 c-2.77 -0.71 -4.73 -1.90 -8.05 -5.06 -2.28 -2.12 -3.92 -4.57 -3.92 -5.71 0 -0.33 1.74 -1.47 3.92 -2.56 l3.92 -1.96 1.90 2.18 c2.50 2.83 5.06 4.08 8.49 4.13 3.54 0 6.09 -1.03 7.07 -2.99 2.01 -3.86 0.27 -6.47 -5.33 -8.16 -2.18 -0.65 -5.55 -1.63 -7.62 -2.23 -4.35 -1.31 -8.43 -4.68 -9.90 -8.16 -1.52 -3.65 -1.31 -9.57 0.44 -12.51 3.10 -5.28 7.34 -7.56 14.63 -7.94 5.77 -0.27 9.19 0.76 12.78 3.92 2.34 2.07 4.52 5.49 4.52 7.13 0 0.92 -3.65 2.72 -6.69 3.26 -1.63 0.33 -1.96 0.16 -3.16 -1.58 -2.28 -3.37 -7.29 -4.57 -10.66 -2.50 -2.18 1.31 -2.99 2.83 -2.56 4.62 0.54 2.23 3.05 3.81 8.49 5.33 9.25 2.56 13.22 5.01 15.18 9.36 1.36 2.99 1.36 9.57 0 12.51 -1.41 2.99 -5.82 7.13 -8.76 8.16 -3.05 1.09 -11.42 1.52 -14.69 0.76z"/>
  <path d="M505.30 228.06 c-0.87 -0.11 -1.58 -0.49 -1.58 -0.82 -0.05 -0.38 -0.05 -9.19 0 -19.69 0 -10.45 0.05 -21.43 0.05 -24.37 l0 -5.33 4.95 0.16 4.90 0.16 -0.05 19.59 c0 15.07 0.11 19.86 0.65 20.56 0.60 0.76 2.01 0.92 10.23 1.03 l9.52 0.16 -0.11 4.03 c-0.05 2.18 -0.22 4.08 -0.33 4.19 -0.27 0.27 -26.22 0.54 -28.24 0.33z"/>
  <path d="M539.57 228.06 c-0.54 -0.11 -0.98 -0.38 -0.98 -0.54 0 -0.65 16.05 -48.20 16.48 -48.96 0.33 -0.44 2.12 -0.65 5.82 -0.65 l5.33 0 7.89 23.77 c7.89 23.72 8.65 26.22 7.89 26.28 -0.27 0 -2.61 0 -5.28 0 l-4.90 0 -1.80 -5.55 -1.80 -5.60 -7.62 0 -7.62 0 -1.90 5.60 -1.90 5.60 -4.35 0.16 c-2.39 0.05 -4.79 0.05 -5.28 -0.11z m25.79 -20.51 c0.16 -0.16 -0.65 -3.43 -1.85 -7.24 -2.45 -8.21 -2.56 -8.49 -2.88 -8.16 -0.33 0.27 -4.62 14.53 -4.62 15.29 0 0.44 8.92 0.54 9.36 0.11z"/>
  <path d="M669.11 226.48 c-0.05 -1.90 0 -36.18 0 -43.25 l0.05 -5.33 15.50 0 15.50 0 0 4.35 0 4.35 -10.45 0.11 -10.50 0.16 -0.16 4.35 c-0.27 7.29 -0.92 6.75 9.03 6.91 l8.54 0.16 0 4.24 0 4.30 -8.49 -0.05 c-7.40 -0.11 -8.54 0 -8.87 0.76 -0.65 1.80 -0.38 10.45 0.38 11.10 0.49 0.33 4.46 0.65 10.66 0.71 l9.96 0.16 0 4.08 0 4.08 -15.56 0.16 -15.56 0.11 -0.05 -1.47z"/>
 </g>
</svg>