<svg xmlns="http://www.w3.org/2000/svg" width="330" height="330" preserveAspectRatio="none" style="display: block;" version="1.1" viewBox="0 0 1320 1320"><defs><linearGradient id="d" x1="1056.22" x2="1060.44" y1="48.882" y2="37.069" gradientUnits="userSpaceOnUse"><stop class="stop0" offset="0" stop-color="rgb(7,14,52)" stop-opacity="1"/><stop class="stop1" offset="1" stop-color="rgb(20,46,89)" stop-opacity="1"/></linearGradient><linearGradient id="c" x1="1202.94" x2="1160.15" y1="119.677" y2="148.78" gradientUnits="userSpaceOnUse"><stop class="stop0" offset="0" stop-color="rgb(0,0,2)" stop-opacity="1"/><stop class="stop1" offset="1" stop-color="rgb(12,31,64)" stop-opacity="1"/></linearGradient><linearGradient id="b" x1="728.415" x2="732.362" y1="274.334" y2="34.448" gradientUnits="userSpaceOnUse"><stop class="stop0" offset="0" stop-color="rgb(45,83,138)" stop-opacity="1"/><stop class="stop1" offset="1" stop-color="rgb(115,149,209)" stop-opacity="1"/></linearGradient><linearGradient id="a" x1="554.4" x2="766.085" y1="1319.03" y2="11.677" gradientUnits="userSpaceOnUse"><stop class="stop0" offset="0" stop-color="rgb(2,19,43)" stop-opacity="1"/><stop class="stop1" offset="1" stop-color="rgb(22,53,101)" stop-opacity="1"/></linearGradient></defs><path fill="url(#a)" d="M201.028 63.325C205.109 60.565 211.772 58.019 216.418 55.932C290.987 22.437 377.295 28.024 456.985 28.014L676.266 28.028L881.249 28.023C923.639 28.025 971.683 26.241 1013.13 30.87C1049.01 34.937 1077.83 38.754 1111.23 54.667C1182.77 86.314 1229.1 135.658 1257.26 208.879C1258.89 213.202 1260.4 217.567 1261.8 221.969C1265.9 237.092 1269.48 250.667 1271.82 266.15C1275.44 280.834 1275.69 306.301 1275.97 321.791C1276.32 349.353 1276.46 376.916 1276.41 404.48Q1277.175 528.323 1276.68 652.17L1276.3 896.482L1276.06 960.385C1276.04 981.345 1275.87 999.272 1273.93 1019.91C1261.65 1150.82 1173.16 1248.03 1045.26 1276.34C991.049 1288.34 930.637 1284.01 873.814 1284.15L627.564 1284.28L428.823 1284.31C389.859 1284.25 349.317 1285.78 310.935 1281.48C187.925 1267.85 84.179 1176.38 59.468 1054.48C47.002 992.99 50.536 923.908 50.289 861.057L49.816 591.01L49.314 405.459C49.259 362.527 47.716 317.151 53.407 274.568C64.174 193.999 109.766 117.337 179.826 74.787C185.063 71.606 195.425 64.554 201.028 63.325ZM197.72 902.697L198.183 906.249C213.262 913.585 226.602 922.66 241.018 930.092C268.558 944.288 295.635 959.504 323.057 973.746L665.83 1152C702.102 1131.9 742.029 1112 778.985 1092.72L936.238 1010.01C964.424 995.239 991.641 978.696 1020.69 965.355C1026.72 962.588 1032.63 956.773 1039.02 953.695C1063.43 941.932 1087.63 930.28 1111.26 916.934C1121.26 911.251 1136.76 905.32 1144.52 897.41C1128.7 901.437 1103.82 913.307 1086.46 919.738A9842 9842 0 0 0 900.524 992.054L782.523 1038.46C759.557 1047.67 689.818 1078.85 671.138 1079.88C652.815 1080.89 548.454 1037.68 526.96 1029.4L296.066 940.316C263.422 927.851 230.625 914.367 197.72 902.697ZM187.08 427.447L190.171 429.621L540.486 289.559L616.036 259.618C628.131 254.797 643.589 247.62 656.221 244.46C658.942 243.78 667.791 245.721 670.72 246.841C700.313 258.153 729.942 269.906 759.442 281.454L944.32 354.219C973.971 365.895 1005.86 378.944 1035.61 389.966L1103.45 415.38C1112.64 418.819 1140.97 427.849 1147.64 432.702L1149.74 430.052C1141.35 426.962 1125.03 417.453 1116.54 412.919C992.709 346.78 866.417 285.692 741.354 221.986C713.991 208.048 687.372 192.786 659.523 179.525C632.527 192.647 608.681 207.161 582.599 220.978L408.151 312.031C385.163 323.807 359.813 333.831 337.548 346.935C297.98 370.224 256.83 389.144 216.902 411.719C207.167 417.223 196.43 421.251 187.08 427.447Z"/><path fill="url(#b)" d="M201.028 63.325C205.109 60.565 211.772 58.019 216.418 55.932C290.987 22.437 377.295 28.024 456.985 28.014L676.266 28.028L881.249 28.023C923.639 28.025 971.683 26.241 1013.13 30.87C1049.01 34.937 1077.83 38.754 1111.23 54.667C1182.77 86.314 1229.1 135.658 1257.26 208.879C1258.89 213.202 1260.4 217.567 1261.8 221.969C1265.9 237.092 1269.48 250.667 1271.82 266.15L1270.1 267.007C1269.96 270.336 1270.04 275.845 1268.49 278.67C1267.95 273.734 1268.26 269.784 1264.74 266.456C1265.8 272.255 1269.49 289.064 1269.15 293.839L1268.13 293.51C1264.64 286.916 1266.06 289.16 1265.79 280.784C1251.09 270.064 1256.15 310.735 1255.88 316.124C1255.25 314.839 1252.75 274.851 1251.82 268.421A245.1 245.1 0 0 0 1227.2 191.714A259.3 259.3 0 0 0 1076.7 63.047C1019.54 44.723 919.84 50.017 856.789 50.034L611.766 49.982L423.876 49.802C354.993 49.741 283.195 43.798 220.295 76.223C211.52 72.225 205.165 80.459 197.165 80.23C195.473 79.008 194.558 78.152 193.056 76.764C171.809 88.866 155.779 102.092 138.286 119.32C137.071 119.081 137.651 119.378 136.71 118.163A258 258 0 0 1 138.99 115.538C172.346 77.684 222.431 58.826 269.034 43.455C274.235 41.739 284.347 44.833 291.472 38.793C292.347 38.051 297.352 39.041 299.886 35.965C295.436 32.918 291.316 36.273 284.559 37.495C273.776 39.445 264.042 40.278 253.328 43.375C236.143 48.345 218.891 57.922 202.148 63.313Z"/><path fill="rgb(5,4,7)" d="M201.028 63.325C205.109 60.565 211.772 58.019 216.418 55.932C290.987 22.437 377.295 28.024 456.985 28.014L676.266 28.028L881.249 28.023C923.639 28.025 971.683 26.241 1013.13 30.87L1012.07 32.055L1015.3 33.613L1015.28 35.071C1011.63 37.082 1005.08 36.993 1000.72 37.201C835.008 35.072 668.658 38.261 502.885 36.879C449.318 36.432 395.076 36.503 341.538 37.236L340.571 37.376C328.29 39.103 313.975 38.661 300.825 40.536C255.509 46.994 232.105 57.078 193.056 76.764C171.809 88.866 155.779 102.092 138.286 119.32C137.071 119.081 137.651 119.378 136.71 118.163A258 258 0 0 1 138.99 115.538C172.346 77.684 222.431 58.826 269.034 43.455C274.235 41.739 284.347 44.833 291.472 38.793C292.347 38.051 297.352 39.041 299.886 35.965C295.436 32.918 291.316 36.273 284.559 37.495C273.776 39.445 264.042 40.278 253.328 43.375C236.143 48.345 218.891 57.922 202.148 63.313Z"/><path fill="rgb(10,31,64)" d="M201.028 63.325C205.109 60.565 211.772 58.019 216.418 55.932C290.987 22.437 377.295 28.024 456.985 28.014L676.266 28.028L881.249 28.023C923.639 28.025 971.683 26.241 1013.13 30.87L1012.07 32.055C965.285 30.025 909.076 31.835 861.341 31.717L525.839 31.719L391.728 31.539C381.949 31.518 324.626 31.125 319.146 32.815L319.523 33.682C327.456 35.806 333.512 35.705 341.538 37.236L340.571 37.376C328.29 39.103 313.975 38.661 300.825 40.536C255.509 46.994 232.105 57.078 193.056 76.764C171.809 88.866 155.779 102.092 138.286 119.32C137.071 119.081 137.651 119.378 136.71 118.163A258 258 0 0 1 138.99 115.538C172.346 77.684 222.431 58.826 269.034 43.455C274.235 41.739 284.347 44.833 291.472 38.793C292.347 38.051 297.352 39.041 299.886 35.965C295.436 32.918 291.316 36.273 284.559 37.495C273.776 39.445 264.042 40.278 253.328 43.375C236.143 48.345 218.891 57.922 202.148 63.313Z"/><path fill="url(#c)" d="M1096.73 56.658L1097.1 55.763L1095.58 53.787C1099.69 50.207 1105.09 54.542 1111.23 54.667C1182.77 86.314 1229.1 135.658 1257.26 208.879C1258.89 213.202 1260.4 217.567 1261.8 221.969C1258.66 226.429 1257.61 226.419 1255.73 228.775C1254.85 225.463 1253.98 223.491 1252.78 220.383C1221.24 138.438 1176.94 91.473 1096.73 56.658Z"/><path fill="url(#d)" d="M1013.13 30.87C1049.01 34.937 1077.83 38.754 1111.23 54.667C1105.09 54.542 1099.69 50.207 1095.58 53.787L1097.1 55.763L1096.73 56.658C1059.24 42.348 1040.93 40.128 1000.72 37.202C1005.08 36.992 1011.63 37.082 1015.28 35.072L1015.3 33.613L1012.07 32.055Z"/><path fill="rgb(10,31,64)" d="M1255.73 228.775C1257.61 226.419 1258.66 226.429 1261.8 221.969C1265.9 237.092 1269.48 250.667 1271.82 266.15L1270.1 267.007C1269.96 270.336 1270.04 275.845 1268.49 278.67C1267.95 273.734 1268.26 269.784 1264.74 266.456C1262.18 253.236 1259.65 241.661 1255.73 228.775Z"/><path fill="rgb(68,103,159)" d="M193.056 76.764C194.558 78.153 195.473 79.008 197.165 80.23C205.165 80.459 211.52 72.225 220.295 76.223C182.278 96.288 148.722 116.868 124.074 153.518C122.122 156.421 114.118 169.114 112.179 170.568C112.535 165.768 115.345 170.04 113.534 163.899C109.601 162.14 110.724 163.276 108.982 159.83C108.214 146.774 130.723 129.236 138.286 119.32C155.779 102.092 171.809 88.866 193.056 76.764Z"/><path fill="rgb(254,219,6)" d="M319.143 463.536C349.795 461.663 396.422 463.126 428.684 463.117L644.111 463.168L876.797 463.146C913.933 463.146 963.87 461.682 999.836 463.62L999.6 669.649C999.671 708.636 1000.85 753.608 998.873 791.931L908.14 792.493C907.9 808.982 910.803 843.143 906.624 859.004C905.366 863.782 893.222 868.163 887.664 869.447L886.963 870.934C887.879 885.261 887.479 903.122 887.62 917.668C887.765 932.723 888.189 951.429 886.761 966.095C885.109 968.447 883.409 970.577 881.28 972.517C875.004 978.235 867.134 981.261 858.622 980.72C851.485 980.267 841.955 977.612 837.322 971.782C830.377 963.044 832.888 882.629 834.922 868.447C828.707 868.159 822.04 867.829 817.218 863.365C808.698 855.475 811.978 805.381 811.905 792.125C790.986 792.505 769.077 792.417 748.156 792.095C605.53 789.9 461.208 795.232 318.802 791.84C317.191 781.833 317.879 746.948 317.889 734.973L318.046 621.081L317.911 519.842C317.885 505.322 317.11 476.519 319.143 463.536Z"/><path fill="rgb(10,31,64)" d="M340.063 487.059L980.926 486.702C981.707 509.867 981.631 534.235 981.226 557.428C980.012 627.013 982.987 697.671 980.907 767.145C962.166 767.011 926.149 768.005 909 766.171C908.462 749.259 912.7 694.567 899.755 685.244C877.127 668.947 826.489 661.127 808.876 690.328C797.278 685.224 787.234 684.441 775.615 680.857C750.421 673.088 723.692 667.249 702.007 652.649C688.296 643.417 618.156 574.207 610.308 571.99C603.402 576.791 610.506 588.056 614.608 592.879C645.199 628.853 677.451 663.141 706.061 700.788C711.484 707.915 718.701 711.522 727.306 712.979C755.102 718.101 783.817 725.045 811.84 728.506Q812.176 747.869 812.012 767.234Q743.655 766.734 675.298 767.058C661.909 767.07 625.696 767.998 613.543 766.857C587.517 767.969 552.865 767.012 526.377 767.022Q443.187 767.411 360.002 766.403C353.262 766.443 346.965 766.603 340.239 765.88A14187 14187 0 0 1 339.224 593.403C339.172 562.017 337.967 517.567 340.063 487.059Z"/><path fill="rgb(254,219,6)" d="M350.805 759.386C347.724 734.549 349.88 728.183 377.047 729.456C389.782 730.053 409.44 727.429 418.998 737.711C424.684 743.828 419.608 756.228 413.305 760.473C402.832 759.556 372.723 761 359.674 760.641Z"/><path fill="rgb(5,4,7)" d="M359.674 760.641C372.723 761 402.832 759.556 413.305 760.473C414.174 764.379 413.362 763.513 415.919 765.48C428.225 766.897 453.732 766.062 467.353 766.068L567.525 765.992C576.397 765.953 606.904 765.322 613.543 766.857C587.517 767.969 552.865 767.012 526.377 767.022Q443.187 767.411 360.002 766.403C359.734 764.836 359.731 762.32 359.674 760.641Z"/><path fill="rgb(254,219,6)" d="M838.421 554.165C917.196 549.355 914.947 656.488 857.245 664.85C844.282 666.016 829.277 666.339 818.56 658.301C777.972 627.861 787.067 565.399 838.421 554.165Z"/><path fill="rgb(177,184,195)" d="M158.064 442.634C162.304 439.389 182.721 425.805 187.08 427.447L190.171 429.621C180.807 433.921 168.046 438.477 158.064 442.634ZM170.354 894.521Q173.838 894.758 177.295 895.252C182.856 896.04 194.161 897.975 197.72 902.697L198.183 906.249C188.764 901.861 180.027 898.351 170.354 894.521ZM1149.74 430.052C1153.48 430.019 1169.7 439.845 1173.42 442.296C1164.46 439.671 1155.99 436.994 1147.64 432.702Z"/></svg>